<?xml version="1.0" encoding="UTF-8" standalone="no"?>
<!-- Created with Inkscape (http://www.inkscape.org/) -->

<svg
   width="210mm"
   height="297mm"
   viewBox="0 0 210 297"
   version="1.1"
   id="svg5"
   inkscape:version="1.2.1 (9c6d41e410, 2022-07-14)"
   sodipodi:docname="d2.svg"
   xmlns:inkscape="http://www.inkscape.org/namespaces/inkscape"
   xmlns:sodipodi="http://sodipodi.sourceforge.net/DTD/sodipodi-0.dtd"
   xmlns="http://www.w3.org/2000/svg"
   xmlns:svg="http://www.w3.org/2000/svg">
  <sodipodi:namedview
     id="namedview7"
     pagecolor="#ffffff"
     bordercolor="#000000"
     borderopacity="0.25"
     inkscape:showpageshadow="2"
     inkscape:pageopacity="0.0"
     inkscape:pagecheckerboard="0"
     inkscape:deskcolor="#d1d1d1"
     inkscape:document-units="mm"
     showgrid="false"
     inkscape:zoom="0.74564394"
     inkscape:cx="396.97231"
     inkscape:cy="563.94209"
     inkscape:window-width="1350"
     inkscape:window-height="1040"
     inkscape:window-x="2263"
     inkscape:window-y="89"
     inkscape:window-maximized="0"
     inkscape:current-layer="layer1" />
  <defs
     id="defs2">
    <inkscape:perspective
       sodipodi:type="inkscape:persp3d"
       inkscape:vp_x="-19.837323 : 139.10556 : 1"
       inkscape:vp_y="0 : 991.82922 : 0"
       inkscape:vp_z="217.23761 : 139.10556 : 1"
       inkscape:persp3d-origin="102.84614 : 90.010008 : 1"
       id="perspective117" />
  </defs>
  <g
     inkscape:label="Layer 1"
     inkscape:groupmode="layer"
     id="layer1">
    <path
       style="fill:#000000;stroke-width:0.264583"
       d="M 85.516129,76.290322 109.29032,94.387095"
       id="path478" />
    <path
       style="fill:#000000;stroke-width:0.264583"
       id="path666"
       d="m 92.627277,49.829984 c -0.383657,2.773018 -1.541402,5.402672 -2.677025,7.936074 -1.649278,3.679282 -2.292226,4.823076 -4.193575,8.56896 -4.654139,8.959085 -9.924279,17.576072 -15.06198,26.260858 -3.100123,5.021932 -5.763199,10.282434 -8.482565,15.512684 -2.643651,4.76532 -5.626386,9.33044 -8.442944,13.99338 -2.076831,3.51885 -4.079073,7.10996 -5.649685,10.8883 -0.138684,0.51447 -0.357875,0.9464 -0.118076,1.48548 0.479685,1.07837 2.500424,2.19907 3.418465,2.73821 1.751301,1.02848 3.525104,2.01816 5.287658,3.02723 6.690217,3.52695 13.556882,6.7022 20.37798,9.96405 2.525244,1.13911 4.992286,2.3947 7.427267,3.71339 0.610545,0.33065 1.19488,0.7139 1.828813,0.99713 0.514358,0.22981 -1.928669,-1.16152 -1.468704,-0.83624 0.536077,0.37911 1.131993,0.66559 1.69799,0.99839 3.636589,2.24721 7.472907,4.12079 11.350389,5.90256 0.972928,0.34237 2.446055,1.20668 3.512595,1.13444 0.21479,-0.0146 0.4228,-0.0815 0.6342,-0.12224 3.03019,-0.9013 6.06187,-1.79808 9.09661,-2.68407 4.6663,-1.35441 9.3766,-2.52922 13.99715,-4.03668 3.60528,-1.24239 7.22539,-2.47247 10.74352,-3.95006 2.09708,-0.88076 2.83103,-1.27536 4.86635,-2.27057 2.06416,-1.08065 4.08522,-2.24659 6.0736,-3.4609 0.4626,-0.2825 0.93791,-0.54776 1.37407,-0.86959 0.82184,-0.60643 1.34155,-1.20326 2.04063,-1.92887 0.5815,-0.83089 2.18554,-1.97857 2.09466,-3.0865 -0.0922,-0.0974 -0.17273,-0.2073 -0.27652,-0.29222 -0.95889,-0.78447 -0.15137,0.1119 -1.29017,-1.05494 -1.18391,-1.21306 -2.12503,-2.6197 -3.09049,-4.00427 -2.00888,-2.91077 -3.71903,-6.01161 -5.65419,-8.96877 -1.46125,-2.27524 -3.35689,-4.19649 -5.21321,-6.14213 -1.83273,-1.88006 -3.42965,-3.95422 -4.92622,-6.1051 -1.7479,-2.5427 -3.09486,-5.32899 -4.55197,-8.04179 -1.62292,-2.82525 -3.19674,-5.672681 -4.66678,-8.580854 -1.59216,-3.30437 -3.16771,-6.616398 -4.90562,-9.847315 -1.62572,-2.687931 -3.22333,-5.392174 -4.82391,-8.09503 -1.82747,-2.94716 -3.49385,-5.98854 -5.2285,-8.990193 -1.1434,-2.133266 -2.28994,-4.266813 -3.52802,-6.347012 -0.99063,-1.81261 -2.45214,-3.263077 -3.79572,-4.80482 -1.080297,-1.353259 -2.246962,-2.636171 -3.251894,-4.047509 0,0 -3.558021,-1.545958 -3.558021,-1.545958 v 0 c 1.001921,1.438342 2.204267,2.711297 3.275039,4.097989 1.313251,1.548662 2.810017,2.950011 3.809246,4.741071 1.27897,2.081183 2.44488,4.231283 3.61042,6.377358 1.7642,2.983521 3.4101,6.034574 5.22217,8.989806 1.60197,2.701875 3.18193,5.416664 4.83846,8.085984 1.76542,3.224329 3.37957,6.525882 4.94528,9.851223 1.43607,2.910552 2.96639,5.7694 4.60973,8.56853 1.47594,2.71116 2.8072,5.51164 4.53183,8.07794 0.0198,0.0288 1.58151,2.30574 1.63057,2.37185 0.98996,1.33425 2.15576,2.53794 3.25382,3.78014 1.85512,1.94629 3.77478,3.84904 5.27506,6.0957 1.97295,2.94846 3.68871,6.06294 5.69293,8.99269 0.70813,1.04746 1.29765,1.95531 2.06242,2.95485 0.48494,0.63381 1.30872,1.74477 2.04508,2.16947 0.10034,0.0579 0.22582,0.0517 0.33873,0.0776 0.31474,0.11625 0.10489,0.39346 -0.035,0.61996 -0.47585,0.77046 -1.13435,1.41154 -1.68911,2.12074 -0.72397,0.76337 -1.10904,1.22698 -1.95888,1.87782 -0.42115,0.32253 -0.87325,0.60279 -1.31871,0.89082 -1.93627,1.25197 -3.92625,2.42665 -5.975,3.48504 -1.94999,0.95212 -2.82753,1.41312 -4.8321,2.26052 -3.51177,1.48454 -7.131,2.71156 -10.74405,3.92039 -4.66137,1.47585 -9.39209,2.68878 -14.11662,3.94386 -3.04755,0.8994 -6.07826,1.87877 -9.188152,2.5458 -0.196729,0.0109 -0.393362,0.0415 -0.590183,0.0325 -1.148667,-0.0525 -2.307344,-0.80595 -3.364224,-1.16926 -1.604894,-0.73491 -3.208904,-1.47689 -4.785141,-2.27198 -0.528947,-0.26681 -1.120478,-1.19675 -1.577157,-0.81936 -0.444437,0.36727 0.982993,0.6028 1.474491,0.9042 -5.092277,-3.00208 -10.2074,-5.98059 -15.635496,-8.34604 -6.892081,-3.26325 -13.806297,-6.49302 -20.52175,-10.11147 0.335992,0.20211 1.333928,0.82424 1.007975,0.60631 -0.810773,-0.54206 -2.777662,-1.5247 -3.371382,-2.38254 -0.115075,-0.16627 -0.171299,-0.37792 -0.17763,-0.58003 -0.0079,-0.25047 0.09087,-0.49288 0.1363,-0.73932 1.378035,-3.84025 3.30749,-7.46215 5.390954,-10.96119 2.820276,-4.67104 5.835827,-9.22391 8.527902,-13.97156 2.706497,-5.2319 5.158303,-10.598596 8.207115,-15.650082 5.070002,-8.731329 10.202217,-17.42984 14.967852,-26.333294 2.834056,-5.259527 5.943016,-10.533483 7.580688,-16.318227 0,0 -3.519635,-1.793343 -3.519635,-1.793343 z" />
    <path
       style="fill:#000000;stroke-width:0.264583"
       id="path668"
       d="m 98.68946,53.815948 c 2.37792,0.966782 4.65748,2.145046 6.89953,3.390601 -0.57754,-0.325528 -1.08518,-0.83397 -1.73262,-0.976585 -0.58145,-0.12808 1.01397,0.624395 1.5245,0.93074 0.55222,0.331362 1.10664,0.659099 1.66365,0.982329 16.8135,9.756677 -2.40638,-1.489135 5.82077,3.400928 4.04786,2.48552 7.91484,5.257173 11.7452,8.062886 3.70851,2.784419 6.98146,6.082538 10.19264,9.41256 3.5537,3.721595 7.33636,7.213139 11.15569,10.658157 3.53715,3.105092 6.98856,6.304246 10.38418,9.562854 3.39589,3.451192 6.79621,6.902332 10.06263,10.477122 1.75811,1.87549 3.45608,3.80668 5.26763,5.63131 0.0827,0.0866 0.8767,0.89766 0.96485,1.06104 0.81945,1.51873 0.55483,3.68631 0.45328,5.32494 -0.35231,3.20928 -0.7929,6.40842 -1.27718,9.6002 -0.3119,1.80247 -0.66413,3.61019 -1.13509,5.37926 -0.13805,0.36163 -0.19749,0.68425 -0.51578,0.93811 -0.60307,0.481 -1.70188,0.3824 -2.40826,0.405 -2.46994,0.0367 -4.93855,0.0165 -7.39941,-0.20561 -2.10953,-0.16566 -4.19541,-0.48848 -6.27179,-0.88425 -1.15541,-0.2476 -2.32621,-0.37496 -3.50467,-0.43128 -0.68191,-0.15808 -1.36308,-0.31352 -2.02684,-0.5361 0,0 3.10524,2.40131 3.10524,2.40131 v 0 c 0.68627,0.19394 1.37967,0.37659 2.08927,0.4618 1.15315,0.0665 2.29727,0.21497 3.43069,0.44039 2.06484,0.37721 4.14456,0.6442 6.23754,0.8114 2.49266,0.20498 4.99224,0.20735 7.49233,0.21281 1.47443,-0.0743 2.72354,-0.1219 3.19286,-1.76002 0.45076,-1.79827 0.81981,-3.62349 1.06916,-5.46067 0.46285,-3.20853 0.84827,-6.42729 1.257,-9.64303 0.12197,-1.51451 0.24715,-2.98553 0.0214,-4.49789 -0.0519,-0.3476 -0.0821,-0.70734 -0.21746,-1.03169 -0.073,-0.17495 -0.90378,-1.02065 -0.98695,-1.1081 -1.86649,-1.83239 -3.61649,-3.77641 -5.41534,-5.67442 -3.29368,-3.56137 -6.72542,-6.99228 -10.07006,-10.50554 -3.42007,-3.274394 -6.89669,-6.489021 -10.46041,-9.607106 -3.82131,-3.409979 -7.55968,-6.913351 -11.10716,-10.609612 -3.21854,-3.340595 -6.48324,-6.664806 -10.18631,-9.477401 -3.82625,-2.81387 -7.69328,-5.587111 -11.72919,-8.094094 -3.79027,-2.26659 -1.11468,-0.67882 -7.10737,-4.158302 -0.4485,-0.260409 1.78497,1.056375 1.34699,0.778645 -1.03832,-0.658421 -2.10178,-1.27647 -3.16057,-1.901466 -1.55679,-0.918974 -3.12494,-1.818566 -4.68741,-2.727848 -2.31047,-1.267296 -4.657357,-2.479927 -7.104795,-3.463238 0,0 3.12765,2.42986 3.12765,2.42986 z" />
    <path
       style="fill:#000000;stroke-width:0.264583"
       id="path670"
       d="m 87.854112,51.974403 c -3.548293,2.156531 -7.429786,3.716274 -11.192418,5.456081 -6.347605,3.01479 -12.65796,6.110774 -18.930265,9.279435 -3.806883,1.945457 -7.596597,3.963593 -11.028402,6.531665 -0.942337,0.705165 -2.723163,2.2033 -3.658375,2.980603 -2.867205,2.372868 -5.285867,5.196835 -7.756747,7.961156 -1.81338,1.896356 -3.686898,3.724643 -5.747687,5.351039 -1.056341,0.90273 -2.224402,1.65766 -3.398364,2.395157 -0.754267,0.336156 -1.47082,0.725797 -2.154901,1.190667 -0.942139,0.928529 -1.998699,1.747012 -2.908951,2.707336 -0.55628,0.756497 -1.230872,1.418532 -1.76132,2.195126 -0.106728,0.156255 -0.23452,0.304998 -0.297656,0.483383 -0.08553,0.241636 -0.09399,0.50396 -0.140986,0.755941 0.0057,0.292703 -0.0066,0.586306 0.017,0.878108 0.08733,1.07814 0.348842,2.14666 0.493949,3.21767 0.06196,0.4573 0.110127,0.91638 0.165191,1.37457 0.0724,0.52201 0.144796,1.04403 0.217194,1.56605 0.533199,4.42748 0.895249,8.87334 1.387836,13.30583 0.388508,3.15674 0.646321,6.32628 0.933435,9.49307 0.25339,1.90101 0.131237,3.83426 0.412968,5.72948 0.628004,1.8565 2.220557,2.08056 4.304956,3.00653 0.219289,0.0974 0.478189,-0.0429 0.715777,-0.0765 0.771615,-0.1091 1.539087,-0.24593 2.309953,-0.36022 3.555889,-0.46191 7.137633,-0.66006 10.70951,-0.94993 2.45617,-0.23796 4.91826,-0.38254 7.38477,-0.44308 0.732787,-0.0159 1.465728,-0.0181 2.198648,-0.0193 0,0 -3.166145,-2.29509 -3.166145,-2.29509 v 0 c -0.719489,0.0146 -1.438957,0.0309 -2.158087,0.0588 -2.442316,0.0966 -4.881584,0.24223 -7.310935,0.52082 -3.587877,0.31951 -7.187308,0.51491 -10.766224,0.93311 -0.252711,0.0315 -1.981237,0.2571 -2.361365,0.27136 -0.222159,0.008 -0.839882,-0.17958 -0.665654,-0.0415 0.895662,0.70988 1.92848,1.22741 2.906975,1.81791 0.264695,0.15974 -1.117165,-0.7491 -0.592511,-0.71354 -0.408369,-1.88335 -0.215176,-3.8337 -0.498352,-5.73658 -0.345545,-3.19479 -0.621018,-6.39696 -1.091564,-9.57739 -0.51217,-4.41132 -0.829055,-8.83899 -1.272764,-13.25683 -0.174078,-1.36978 -0.292628,-2.74577 -0.493488,-4.11185 -0.03419,-0.2325 -0.276289,-1.67808 -0.304547,-1.96367 -0.02631,-0.26589 -0.02221,-0.53391 -0.03332,-0.80087 0.02961,-0.20591 0.02352,-0.42023 0.08884,-0.61774 0.05574,-0.16856 0.170989,-0.31155 0.267707,-0.46042 0.505377,-0.777899 1.173669,-1.423792 1.752462,-2.143784 0.878472,-0.948052 1.881317,-1.795634 2.869293,-2.623426 0.692107,-0.4421 1.424365,-0.801124 2.143643,-1.193622 1.157007,-0.769313 2.323174,-1.528662 3.347096,-2.475984 2.035127,-1.678628 3.931832,-3.500946 5.717873,-5.443683 2.433743,-2.766743 4.821841,-5.580563 7.652411,-7.962067 0.960192,-0.821468 2.600259,-2.244455 3.578823,-2.995853 3.367101,-2.585448 7.1007,-4.622739 10.854904,-6.580463 6.288114,-3.177336 12.669086,-6.170721 19.030807,-9.197088 3.857067,-1.750991 7.803703,-3.327866 11.559831,-5.28769 0,0 -3.330823,-2.132687 -3.330823,-2.132687 z" />
    <path
       style="fill:#000000;stroke-width:0.264583"
       id="path672"
       d="m 16.702886,103.23122 c 0.08697,3.02196 0.247364,6.03759 0.527348,9.04765 0.260052,2.73109 0.786915,5.42735 1.516228,8.06972 0.819964,2.18464 2.062456,4.17974 3.286001,6.15662 1.395978,1.97885 2.914377,3.86846 4.488153,5.70776 3.023544,3.41733 6.14177,6.7436 9.326404,10.01102 7.449372,7.56598 13.837869,16.06574 20.240667,24.50883 4.072935,5.34473 8.133767,10.71791 12.648567,15.70387 2.105255,2.32495 2.958362,3.09912 5.146694,5.24083 2.809721,2.82901 6.026994,5.15655 9.249544,7.47663 2.696583,2.05941 5.336829,4.19107 8.025728,6.26096 0.927717,0.73845 1.887305,1.45818 2.698031,2.33047 0.81997,0.88225 1.48809,1.89523 2.183894,2.87384 0.571677,0.84104 1.137193,1.68702 1.734767,2.50996 0,0 3.600318,1.5478 3.600318,1.5478 v 0 c -0.65076,-0.81139 -1.23011,-1.67936 -1.821691,-2.53435 -0.70427,-0.97816 -1.356518,-2.02292 -2.152274,-2.931 -0.806164,-0.91997 -1.795171,-1.65403 -2.751743,-2.4047 -2.698385,-2.04586 -5.325814,-4.18078 -7.99682,-6.26135 -1.311,-0.94044 -2.654863,-1.84555 -3.947663,-2.81029 -1.959205,-1.46203 -3.783716,-3.09341 -5.597882,-4.72839 -2.215409,-2.1262 -3.141302,-2.95408 -5.271595,-5.26276 -4.607121,-4.99291 -8.760963,-10.38035 -12.877935,-15.77621 -6.336707,-8.39324 -12.616505,-16.86638 -19.955676,-24.42937 -3.045677,-3.23796 -6.027682,-6.53024 -8.986972,-9.84665 -1.559801,-1.82002 -3.045437,-3.70014 -4.461424,-5.6344 -1.235603,-1.9486 -2.478309,-3.91956 -3.346855,-6.06428 -0.758835,-2.63125 -1.344538,-5.31335 -1.615282,-8.04238 -0.295325,-2.96911 -0.485974,-5.95254 -0.391079,-8.93779 0,0 -3.497453,-1.78204 -3.497453,-1.78204 z" />
    <path
       style="fill:#000000;stroke-width:0.264583"
       id="path674"
       d="m 168.08721,139.82655 c -2.63121,5.29141 -6.4572,9.87576 -10.15558,14.44021 -4.06822,4.82043 -8.2265,9.56945 -12.67319,14.0465 -1.97093,1.98439 -3.86476,3.77296 -5.88318,5.70457 -3.76064,3.44123 -7.38819,7.03206 -11.26449,10.34593 -2.16797,1.85341 -3.86903,3.16514 -6.11333,4.94247 -3.58406,2.83635 -7.4054,5.35488 -11.03028,8.13638 -0.79598,0.61079 -2.41092,1.94351 -3.24844,2.63013 -1.0749,0.8122 -2.06031,1.75591 -3.21309,2.46337 -0.17264,0.10594 -1.07702,0.59141 -1.23008,0.67415 -1.33259,0.75077 -2.36852,1.88649 -3.457912,2.93754 -0.61264,0.65237 -1.334434,1.02653 -2.189329,1.23811 0,0 3.246171,2.22291 3.246171,2.22291 v 0 c 0.88001,-0.28443 1.631,-0.72968 2.2602,-1.42234 1.05405,-1.03677 2.08763,-2.1302 3.39766,-2.8473 0.39482,-0.2114 0.88317,-0.46064 1.26018,-0.70879 1.1239,-0.73971 2.05054,-1.73954 3.09104,-2.58267 1.02951,-0.90615 2.05394,-1.82418 3.12145,-2.68581 3.54049,-2.85767 7.30433,-5.42489 10.87716,-8.24052 2.49631,-1.95287 3.76214,-2.89775 6.15155,-4.94197 3.87622,-3.31623 7.51308,-6.90169 11.24722,-10.37348 1.99287,-1.93165 3.90232,-3.75768 5.84508,-5.74307 4.41514,-4.512 8.50599,-9.3229 12.61113,-14.1143 3.79046,-4.54874 7.70165,-9.06564 10.77156,-14.14864 0,0 -3.4215,-1.97338 -3.4215,-1.97338 z" />
    <path
       style="fill:#000000;stroke-width:0.264583"
       id="path690"
       d="m 22.605648,105.827 c 1.262499,-0.76271 2.218538,-1.9026 3.182275,-2.9993 1.011445,-1.12214 1.603699,-2.53128 2.278643,-3.86339 0.540115,-1.299335 1.251138,-2.47132 2.17452,-3.529606 0.149463,-0.125224 0.298926,-0.250449 0.448392,-0.375674 0.190008,-0.142335 0.386816,-0.276023 0.570029,-0.427011 1.517338,-1.250463 0.270637,-0.345847 2.054942,-1.725144 0.783537,-0.605687 1.751645,-1.274704 2.562947,-1.84626 2.546533,-1.866569 5.048475,-3.809886 7.770453,-5.417486 1.965997,-1.081416 3.83989,-2.315501 5.779026,-3.442192 2.542001,-1.637832 4.982176,-3.420444 7.561863,-5.001324 1.784805,-1.229706 3.760055,-2.143937 5.556983,-3.347754 2.303857,-1.506609 4.760735,-2.763782 7.024071,-4.330192 2.313242,-1.629047 4.721937,-3.110106 7.174548,-4.51739 2.237433,-1.144712 4.372186,-2.471243 6.543156,-3.734554 0.340878,-0.18615 0.675875,-0.383503 1.022636,-0.558453 0.792763,-0.399971 1.473673,-0.662543 2.282817,-1.035008 1.294024,-0.595667 2.565162,-1.243462 3.843692,-1.871324 1.155133,-0.571288 2.336638,-1.086072 3.515026,-1.606698 0.694383,-0.306787 1.282454,-0.473099 1.782585,-1.044366 0.321408,-2.564135 0.289433,-0.968528 -5.606243,-3.267808 -0.23505,-0.09167 -0.478409,0.161116 -0.713041,0.253849 -0.930913,0.367922 -1.82717,0.811284 -2.719311,1.262656 -2.215591,1.091287 -4.25949,2.47905 -6.360575,3.767391 -2.884392,1.760199 -5.845712,3.401798 -8.86863,4.912466 -1.762635,0.933389 -3.403187,2.073738 -5.127535,3.072598 -0.558932,0.323773 -2.054071,1.129845 -2.629849,1.442204 -3.143123,1.817764 -6.307969,3.600839 -9.450459,5.421707 -1.32633,0.807746 -2.69331,1.543574 -4.038513,2.318671 -0.341707,0.196889 -0.69773,0.370858 -1.02485,0.591132 -0.420772,0.283334 -1.852409,1.466606 -2.178719,1.732433 -2.014721,1.876777 -4.371631,3.34332 -6.425499,5.167037 -0.953127,1.003284 -2.065356,1.824985 -3.149534,2.676247 0,0 4.904875,3.07848 4.904875,3.07848 v 0 c 1.070316,-0.885279 2.174235,-1.733002 3.174471,-2.699535 2.000755,-1.843829 4.192987,-3.471786 6.289042,-5.203476 0.234096,-0.175152 1.853936,-1.395246 2.204612,-1.630225 1.593326,-1.067649 3.318563,-1.93417 4.912177,-3.002103 3.144255,-1.844558 6.363703,-3.551351 9.534443,-5.349089 2.616046,-1.446202 5.156925,-3.0163 7.748966,-4.504682 2.987331,-1.603481 5.959086,-3.238664 8.892166,-4.939165 2.124615,-1.245412 4.182007,-2.614676 6.40774,-3.679303 0.886865,-0.421736 1.776077,-0.861645 2.722391,-1.138957 0.23196,-0.06798 0.899136,-0.01045 0.70771,-0.158033 -4.315256,-3.327022 -6.153576,-1.753487 -4.303575,-3.160631 -0.259228,0.445511 -1.052862,0.715328 -1.462476,0.90937 -1.162161,0.55054 -2.344539,1.059098 -3.488166,1.648683 -2.391225,1.188018 -4.863682,2.204463 -7.212812,3.470589 -2.162826,1.265804 -4.28548,2.599976 -6.515229,3.748128 -2.461877,1.416888 -4.818534,2.986383 -7.185118,4.556066 -2.315617,1.490049 -4.672441,2.914719 -7.061303,4.28444 -1.873078,1.079807 -3.713861,2.212986 -5.542735,3.366292 -2.499228,1.676622 -4.940318,3.441358 -7.517762,4.99868 -1.95126,1.124016 -3.920932,2.218214 -5.813023,3.440713 -2.652406,1.722003 -5.147498,3.669117 -7.736787,5.482989 -1.274347,0.920594 -2.545977,1.842924 -3.809391,2.778408 -0.526497,0.38984 -1.077976,0.747438 -1.583305,1.164352 -0.169936,0.140203 -0.321443,0.301355 -0.482165,0.452033 -0.912461,1.109273 -1.69247,2.327317 -2.258324,3.651268 -0.608862,1.315458 -1.186335,2.659462 -2.18008,3.744228 -0.904178,1.068113 -1.838464,2.164303 -3.142211,2.749503 0,0 4.960023,3.26352 4.960023,3.26352 z" />
    <path
       style="fill:#000000;stroke-width:0.264583"
       id="path692"
       d="m 99.825938,56.323354 c -9.537403,-5.917616 -1.511024,-0.482987 0.526512,1.022654 2.18628,1.602753 4.20269,3.419478 6.29008,5.146199 2.61369,2.147271 5.32434,4.169224 8.01817,6.213213 3.94338,2.87719 7.929,5.70435 12.06718,8.295624 5.04101,3.029032 10.13074,5.972518 15.13722,9.059238 5.83021,3.684825 11.64896,7.388592 17.45215,11.115973 2.51583,1.730127 5.0221,3.640565 6.76336,6.193975 0.2168,0.31793 0.39667,0.65953 0.59501,0.9893 1.06404,2.0929 1.26066,4.42697 1.39179,6.73104 0.011,1.88096 0.012,3.74393 0.74376,5.50142 0.38666,0.78171 1.00091,1.41277 1.40591,2.18345 0.29524,0.56183 0.34263,0.77553 0.54793,1.37456 0.15255,0.49753 0.30854,0.99379 0.47879,1.48552 0,0 5.38513,2.46683 5.38513,2.46683 v 0 c -0.25388,-0.4648 -0.44093,-0.95474 -0.58903,-1.46435 -0.39174,-1.35558 -0.95358,-2.57039 -1.91105,-3.62571 -0.9092,-1.70006 -0.92594,-3.45377 -0.93836,-5.34819 -0.13657,-2.3701 -0.25252,-4.78282 -1.27147,-6.97229 -0.20006,-0.35466 -0.37721,-0.72326 -0.60017,-1.06398 -1.76299,-2.69404 -4.3919,-4.6865 -6.99349,-6.504072 -5.79941,-3.664495 -11.60489,-7.318687 -17.34111,-11.081856 -5.03902,-3.096807 -10.17778,-6.023541 -15.23323,-9.092628 -4.08062,-2.54199 -8.00943,-5.320022 -11.88252,-8.166153 -2.65672,-2.062043 -5.38933,-4.025567 -7.98023,-6.172547 -2.05668,-1.738984 -4.07528,-3.529356 -6.22388,-5.154345 -3.34033,-2.504122 -6.721697,-4.929145 -10.44449,-6.859381 0,0 4.606038,3.726506 4.606038,3.726506 z" />
    <path
       style="fill:#000000;stroke-width:0.264583"
       id="path694"
       d="m 175.28897,122.53278 c -0.96329,-1.52648 -1.82219,-3.11416 -2.75505,-4.65864 -0.75492,-1.22679 -1.84455,-2.15405 -2.85344,-3.1545 -0.88593,-1.15701 -1.83102,-2.25393 -2.82813,-3.31555 -0.13303,-0.13391 -0.26607,-0.26781 -0.3991,-0.40171 0,0 -5.43444,-2.23307 -5.43444,-2.23307 v 0 c 0.14154,0.1256 0.28308,0.25119 0.42462,0.37678 1.00552,1.05502 2.04764,2.07521 2.84227,3.30874 0.4939,0.60337 0.79871,0.79642 1.35659,1.30224 0.44852,0.40668 0.65606,0.6728 1.0512,1.14032 0.17581,0.20802 0.34939,0.41791 0.52408,0.62687 0.93957,1.5067 1.80988,3.05198 2.68191,4.5983 0,0 5.38949,2.41022 5.38949,2.41022 z" />
    <path
       style="fill:#000000;stroke-width:0.264583"
       id="path696"
       d="m 171.77503,113.02241 c -1.66157,-1.57308 -3.14164,-3.32278 -4.71185,-4.98509 -1.44704,-1.60319 -3.10245,-2.97059 -4.76765,-4.33407 -1.81702,-1.46389 -3.72675,-2.80635 -5.64277,-4.135979 -2.40614,-1.738148 -4.97118,-3.228303 -7.5171,-4.746905 -2.55552,-1.709365 -4.22363,-4.352449 -6.04925,-6.760832 -1.67269,-2.131126 -3.00586,-4.489521 -4.49013,-6.747089 -2.49528,-3.218093 -6.78345,-4.361082 -10.4827,-5.663375 -2.39899,-0.843682 -4.82199,-1.632714 -7.09759,-2.777463 -1.97729,-0.94561 -4.02559,-1.724247 -6.05824,-2.539169 -2.15282,-0.898721 -4.2113,-1.999274 -6.22959,-3.166962 8.27594,4.852585 2.57946,1.519147 0.94586,0.102185 -0.69816,-0.605566 -0.82198,-0.795595 -1.40056,-1.468356 -0.90735,-1.299736 -0.40554,-1.271254 0.16453,-2.534851 0.15833,-0.285464 0.17864,-1.505929 0.74563,-1.4307 0.46433,0.06161 1.09183,0.613894 1.38812,0.827722 -5.37694,-2.750603 -4.8836,-3.096331 -3.11924,-1.028726 0.82867,0.971098 1.52519,2.041313 2.36004,3.008072 0.0543,0.06091 0.0905,0.145306 0.16305,0.182739 0.029,0.01498 0.0528,-0.03849 0.0792,-0.05774 0.0235,-0.04735 0.0236,-0.16646 0.0705,-0.142063 1.88545,0.980713 3.63663,2.224884 5.58143,3.081904 0.028,0.01233 1.72197,-0.510834 1.72881,-0.512924 0.13089,-0.03726 0.50531,-0.03541 0.39266,-0.11177 -1.70752,-1.157447 -3.43962,-2.300277 -5.29155,-3.208949 -0.21032,-0.103196 -0.42497,0.197416 -0.63512,0.300953 -0.58616,0.288785 -1.13952,0.596077 -1.67677,0.966671 -0.22017,0.262586 -0.31279,0.293076 -0.337,0.667705 -0.0174,0.268528 0.22686,0.613598 0.44934,0.74725 1.82094,1.093927 3.6723,2.13642 5.50845,3.20463 0.69433,0.26034 1.51049,0.108416 2.19646,0.387033 0.19515,0.07926 0.69376,0.47522 0.50826,0.375454 -4.72637,-2.541818 -5.85479,-4.071932 -4.39887,-2.234523 1.468,2.28913 5.27827,3.449662 7.08288,4.309798 0.43192,0.20587 0.93385,0.209 1.40016,0.316198 0.45937,0.105604 0.93231,0.165516 1.37686,0.322202 0.41093,0.144838 0.78207,0.384374 1.1731,0.576562 -1.38774,-0.754785 -2.73557,-1.588104 -4.16322,-2.264357 -0.31503,-0.149218 0.53992,0.441282 0.80131,0.67189 0.55465,0.489334 0.75444,0.789088 1.41558,1.163376 4.62707,2.619489 4.22612,2.408769 6.85598,3.702428 -1.56122,-0.850646 -3.07568,-1.793399 -4.68367,-2.551938 -0.15831,-0.07468 0.18165,0.30048 0.2513,0.461061 0.2557,0.589547 0.1446,0.72695 0.59009,1.295484 0.52046,0.664197 1.25088,1.179132 1.89949,1.697231 3.19454,2.338162 6.31902,4.768135 9.45819,7.179132 3.6592,2.76541 7.64867,5.045917 11.49466,7.533103 0.92139,0.595855 1.85347,1.1772 2.74489,1.817013 0.77089,0.553299 1.49195,1.172914 2.23792,1.759371 2.52395,2.110843 4.19074,4.892784 5.8353,7.681564 1.58593,2.54322 3.07593,3.06091 6.55521,4.53939 0.19774,0.084 0.29284,-0.34792 0.31653,-0.56146 0.0302,-0.2724 -0.10991,-0.53701 -0.16486,-0.80551 -0.26269,-0.36279 -0.49121,-0.75297 -0.78808,-1.08837 -0.96276,-1.08772 -2.2299,-2.13397 -3.36161,-3.01357 -2.13,-1.6555 -4.39792,-3.122194 -6.64993,-4.602585 -3.75999,-2.277317 -2.95433,-1.816291 -8.87014,-5.097341 -0.0951,-0.05272 -1.81922,-0.983631 -2.24656,-0.980427 -0.16999,0.0013 -0.40346,0.133356 -0.41003,0.303218 -0.0182,0.472144 0.23013,0.916543 0.3452,1.374817 4.00919,5.04053 8.28636,9.869788 12.61637,14.636498 0.87635,0.92277 1.80581,1.93959 2.74906,2.81093 0.27177,0.25105 0.53422,0.52058 0.84908,0.71489 1.87544,1.15746 3.80662,2.22208 5.70994,3.33312 0,0 -4.66806,-3.76951 -4.66806,-3.76951 v 0 c 9.19588,5.42708 5.01432,3.19703 3.65582,2.0091 -0.87347,-0.76381 -1.99891,-1.98093 -2.76332,-2.77664 -4.33462,-4.74503 -8.56153,-9.59223 -12.65476,-14.54706 -0.28229,-0.152725 -0.56615,-0.302585 -0.84687,-0.458179 -0.0458,-0.0254 0.0937,0.04703 0.14197,0.06747 0.27588,0.116946 0.55953,0.216205 0.83025,0.344649 0.46224,0.219303 1.79475,0.978615 1.36706,0.697841 -1.10071,-0.722593 -2.26467,-1.343982 -3.39075,-2.026356 -0.66132,-0.400735 1.33093,0.787617 1.99639,1.181423 3.45463,2.252025 7.15736,4.502532 10.0845,7.437752 0.30186,0.3027 0.5607,0.64546 0.84105,0.96819 0.1317,0.11689 0.26341,0.23379 0.39512,0.35067 0.0441,-0.0415 0.0792,-0.1534 0.13232,-0.12439 1.67836,0.9164 3.29179,1.94724 4.95011,2.89943 0.12756,0.0732 -0.24824,-0.16074 -0.35559,-0.2613 -0.39253,-0.36764 -0.56637,-0.67373 -0.88101,-1.12333 -1.68042,-2.80262 -3.24089,-5.69576 -5.75146,-7.880072 -0.73945,-0.602909 -1.4491,-1.244344 -2.21836,-1.808729 -0.88545,-0.649626 -1.81932,-1.230752 -2.74014,-1.829186 -3.83772,-2.494098 -7.835,-4.752263 -11.51408,-7.483777 -3.14688,-2.400019 -6.24652,-4.862938 -9.4595,-7.175846 -0.71413,-0.536353 -1.98651,-1.288132 -2.43108,-2.092479 -0.10003,-0.180993 -0.13731,-0.390459 -0.19286,-0.589653 -0.0617,-0.221133 0.0265,-0.534413 -0.15854,-0.670229 -1.76304,-1.293672 -3.69402,-2.341314 -5.54103,-3.511971 -2.34537,-1.052758 -0.66739,-0.338328 3.43091,2.207784 0.2624,0.163018 -0.56406,-0.262207 -0.81237,-0.445966 -0.24002,-0.177617 -0.42325,-0.421333 -0.63881,-0.627946 -2.37151,-2.273093 -1.41315,-1.110514 -6.89822,-4.396081 -0.41365,-0.163097 -0.81647,-0.356878 -1.24094,-0.489289 -0.44929,-0.140152 -0.91722,-0.211748 -1.3737,-0.326334 -0.45663,-0.114623 -1.73081,-0.658109 -1.36542,-0.361233 1.25025,1.015799 2.73994,1.695423 4.08971,2.574666 0.20302,0.132246 -0.45944,-0.178126 -0.64669,-0.331886 -0.13889,-0.11404 -0.2011,-0.297884 -0.30164,-0.446823 -1.23852,-2.433076 -0.20699,-0.632611 -5.76696,-3.945043 -0.1898,-0.11308 -0.40811,-0.173233 -0.62163,-0.23001 -0.69268,-0.184185 -1.44395,-0.169802 -2.08783,-0.526566 1.57762,0.933852 3.15197,1.873247 4.73287,2.801559 0.0909,0.05336 -0.17916,-0.111704 -0.26233,-0.176416 -0.062,-0.04821 -0.10039,-0.128307 -0.17164,-0.161274 -0.2023,-0.0936 -0.34691,0.116837 -0.34186,0.05907 0.006,-0.07162 0.10271,-0.100642 0.15406,-0.150963 0.52614,-0.33478 1.0667,-0.621927 1.62884,-0.893027 0.209,-0.100793 0.7998,-0.135424 0.63079,-0.294405 -4.03551,-3.795855 -2.85027,-4.031101 -5.05668,-3.378565 -0.28966,0.08653 -0.57871,0.175078 -0.86896,0.25958 -0.2833,0.08248 -1.06202,0.03446 -0.85164,0.241345 1.33624,1.314075 3.9415,4.890244 4.6528,3.156347 0.0344,-0.08383 0.0834,-0.172794 0.0706,-0.262496 -0.0129,-0.09009 -0.0942,-0.155702 -0.14135,-0.233553 -0.14316,-0.158464 -0.79604,-0.879554 -0.85041,-0.948742 -2.54262,-3.235291 1.4912,1.700908 -1.50933,-2.060046 -2.205,-2.763819 -2.16556,-1.90468 -7.07992,-5.06816 -0.3285,-0.134649 -0.63539,-0.345104 -0.9855,-0.40395 -1.19053,-0.200102 -1.51287,0.951272 -1.70545,1.828416 -0.55966,1.271395 -1.30045,1.696151 -0.45689,3.12782 0.53318,0.69206 0.69758,0.957143 1.35449,1.579496 2.65762,2.517823 6.39495,3.856643 9.28368,5.913956 2.03121,1.154168 4.11355,2.226307 6.28154,3.101859 2.02843,0.815572 4.06869,1.606425 6.03293,2.571112 2.31567,1.071716 4.73234,1.885397 7.14009,2.723549 0.86033,0.296704 1.72883,0.570704 2.58107,0.889884 0.31874,0.119375 1.22924,0.574858 0.94407,0.389038 -1.43124,-0.932632 -2.92743,-1.761585 -4.39422,-2.637248 -0.20029,-0.119573 0.41525,0.21984 0.59465,0.368925 0.19745,0.164079 0.35077,0.374962 0.52615,0.562443 1.53472,2.231303 2.79816,4.643096 4.47596,6.779784 1.85786,2.422999 3.50264,5.100476 5.96318,6.971972 2.53882,1.525034 5.12753,2.972136 7.53136,4.710282 1.91751,1.320622 3.82819,2.653447 5.66052,4.091367 1.66199,1.35418 3.34848,2.67105 4.79642,4.26389 1.58026,1.65591 3.05657,3.41543 4.70588,4.99945 0,0 5.54327,2.2961 5.54327,2.2961 z" />
    <text
       xml:space="preserve"
       style="font-size:22.57777778px;white-space:pre;inline-size:26.4014;fill:#000000;stroke-width:0.264583"
       x="97.935486"
       y="98.290314"
       id="text780" />
    <text
       xml:space="preserve"
       style="font-size:76.2px;fill:#000000;stroke-width:0.264583"
       x="74.516129"
       y="142.29033"
       id="text834"><tspan
         sodipodi:role="line"
         id="tspan832"
         style="font-size:76.2px;stroke-width:0.264583"
         x="74.516129"
         y="142.29033">2</tspan></text>
  </g>
</svg>
